# xmcd
# Track frame offsets:
# 150
# 12524
# 25101
# 35268
# 49977
# 61188
# 74246
# 86978
# 102010
# 113832
# 130866
# 142758
# 153858
# 167145
# 185949
# 198625
#
# Disc length: 2923 seconds
# Revision: 4
# Processed by: cddbd v1.4PL0 Copyright (c) Steve Scherf et al.
# Submitted via: VisiTrax 2.9.5.180 - For more info visit www.synapsa.com
#
DISCID=e30b6910
DTITLE=Cowboys and Indians - A Big Night In Cowtown
DYEAR=1998
DGENRE=Western Swing
TTITLE0=She's Sweet
TTITLE1=Big Texas
TTITLE2=Big Night In Cowtown
TTITLE3=My Lone Star Heart
TTITLE4=Red Hot Rhythm
TTITLE5=Ain't Got Nothin'
TTITLE6=Leavin' For Good
TTITLE7=She's My Baby
TTITLE8=What You Did Last Night
TTITLE9=Blues In My Coffee
TTITLE10='Bout Crazy 'Bout You
TTITLE11=You Never Want The Water
TTITLE12=Drunkard's Blues
TTITLE13=Takin' Out The Trash
TTITLE14=Hard Time
TTITLE15=Stompin' At The Sons
EXTD=
EXTT0=
EXTT1=
EXTT2=
EXTT3=
EXTT4=
EXTT5=
EXTT6=
EXTT7=
EXTT8=
EXTT9=
EXTT10=
EXTT11=
EXTT12=
EXTT13=
EXTT14=
EXTT15=
PLAYORDER=
